<svg xmlns="http://www.w3.org/2000/svg"  width="160" height="200" viewBox="0 10 40 45">
    <defs>
        <filter id="composite">
			<feGaussianBlur in="SourceGraphic" stdDeviation="3" result="gaussianBlur"/>
			<feColorMatrix in="gaussianBlur" mode="matrix" values="1 0 0 0 0  0 1 0 0 0  0 0 1 0 0  0 0 0 18 -7" result="colorMatrix"/>
			<feBlend in="SourceGraphic" in2="colorMatrix"/>
	    </filter>
    </defs>
    <path d="M0 15 C 0 5, 40 5, 40 15 C 40 25, 0 25, 0 15 Z" fill="#c6cbef"/>
    <path d="M0 20 C 0 30, 40 30, 40 20 L40 30 C 40 40, 0 40, 0 30 Z" fill="#8186d5"/>
    <path d="M0 35 C 0 45, 40 45, 40 35 L40 45 C 40 55, 0 55, 0 45 Z" fill="#494ca2"/>
    <path d="M4 20 
    C 6 20, 10 25, 10 30 
    C 10 40, 7 37, 7 42 
    C 7 47, 14 47, 14 42 
    C 14 37, 11 40, 11 30
    C 11 24, 17 24, 19 28
    C 20 30, 24 30, 25 28
    C 27 24, 25 23, 36 20
    Z " 
    fill="#c6cbef"/>
    <g filter="url(#composite)">
    <circle cx="22" cy="26" r="3" fill="#c6cbef"/>
    <circle cx="22" cy="26" r="3" fill="#c6cbef">
        <animate attributeName="cy"
                 attributeType="XML"
                 dur="1s"
                 calc="spline"
                 values="26 ; 32 ; 38 ; 60"
                 keyTimes="0 ; 0.9 ; 0.95 ; 1"
                 repeatCount="indefinite"/>
    </circle>
    </g>
</svg>